#!OML:ASF F:\VICON\USERDATA\INSTALL\rory3\rory3.ASF
:FULLY-SPECIFIED
:DEGREES
1923
root 0.162932 16.1153 0.321345 1.41658 -0.433676 -0.735587
lowerback 10.4245 0.161428 -0.601966
upperback 0.853119 0.148156 0.0743906
thorax -4.95911 0.0864797 0.39527
lowerneck -10.8139 -8.35843 -12.211
upperneck 39.3497 -10.1018 1.74338
head 16.9004 -5.79783 1.11669
rclavicle 3.8266e-015 -1.98785e-015
rhumerus -27.8894 -23.7165 -32.173
rradius 30.8651
rwrist 28.9601
rhand -15.4971 10.7169
rfingers 7.12502
rthumb 10.6853 -18.9914
lclavicle 3.8266e-015 -1.98785e-015
lhumerus -27.405 16.9999 33.8974
lradius 32.1582
lwrist -13.4566
lhand -11.6735 14.3385
lfingers 7.12502
lthumb 14.3716 43.821
rfemur -2.1232 11.4345 18.0832
rtibia 16.8885
rfoot -12.4842 -11.4485
rtoes -7.29165
lfemur 0.380655 -11.2328 -16.4888
ltibia 11.2485
lfoot -9.30254 10.4081
ltoes -12.2722
1924
root 0.163082 16.1143 0.323714 1.39247 -0.415717 -0.736227
lowerback 10.3836 0.175122 -0.597913
upperback 0.870687 0.166376 0.0597997
thorax -4.91803 0.0950777 0.375222
lowerneck -10.8663 -8.39158 -12.1878
upperneck 39.4048 -10.1527 1.73803
head 16.9462 -5.81537 1.09715
rclavicle -8.77137e-015 4.17448e-015
rhumerus -27.8718 -23.9366 -32.1594
rradius 30.792
rwrist 29.0916
rhand -15.4621 10.8006
rfingers 7.12502
rthumb 10.719 -18.906
lclavicle -8.77137e-015 4.17448e-015
lhumerus -27.3063 17.2829 33.8952
lradius 32.1651
lwrist -13.9825
lhand -11.2172 14.3575
lfingers 7.12502
lthumb 14.8112 43.8082
rfemur -2.0842 11.43 18.0891
rtibia 16.8934
rfoot -12.53 -11.4312
rtoes -6.92537
lfemur 0.42235 -11.2677 -16.4908
ltibia 11.2521
lfoot -9.43451 10.4573
ltoes -12.138
1925
root 0.163161 16.1132 0.326171 1.40604 -0.434143 -0.665204
lowerback 10.3147 0.188757 -0.689457
upperback 0.864266 0.17371 0.0462042
thorax -4.88655 0.100397 0.411697
lowerneck -10.9387 -8.37421 -12.1528
upperneck 39.4878 -10.1165 1.70519
head 17.0004 -5.79932 1.07915
rclavicle 8.39865e-015 -3.57812e-015
rhumerus -27.834 -24.0258 -32.183
rradius 30.7704
rwrist 29.1584
rhand -15.4393 10.9276
rfingers 7.12502
rthumb 10.7411 -18.7778
lclavicle 8.39865e-015 -3.57812e-015
lhumerus -27.3084 17.4983 33.8961
lradius 32.2259
lwrist -14.2767
lhand -10.8659 14.4776
lfingers 7.12502
lthumb 15.1496 43.9031
rfemur -2.07628 11.4231 18.0052
rtibia 16.8667
rfoot -12.5743 -11.4033
rtoes -6.74269
lfemur 0.398922 -11.2688 -16.569
ltibia 11.296
lfoot -9.47757 10.4514
ltoes -12.1945
1926
root 0.162063 16.1128 0.327999 1.39537 -0.440119 -0.699981
lowerback 10.3141 0.179242 -0.686836
upperback 0.844605 0.16158 0.0513687
thorax -4.90668 0.0945283 0.417322
lowerneck -10.9906 -8.36037 -12.108
upperneck 39.5492 -10.0922 1.67369
head 17.0381 -5.78716 1.05909
rclavicle -5.39203e-015 0
rhumerus -27.8011 -23.8524 -32.3241
rradius 30.8336
rwrist 28.9988
rhand -15.4394 10.9135
rfingers 7.12502
rthumb 10.7409 -18.7919
lclavicle -5.39203e-015 0
lhumerus -27.3255 17.4591 33.919
lradius 32.2167
lwrist -14.1129
lhand -10.9188 14.4011
lfingers 7.12502
lthumb 15.0988 43.8304
rfemur -2.05779 11.4609 18.0553
rtibia 16.8634
rfoot -12.6157 -11.4105
rtoes -6.61343
lfemur 0.386641 -11.2716 -16.5311
ltibia 11.3316
lfoot -9.40644 10.4356
ltoes -12.3586
1927
root 0.160934 16.1124 0.329019 1.37551 -0.425957 -0.768683
lowerback 10.3215 0.166304 -0.631027
upperback 0.836145 0.151278 0.061716
thorax -4.9194 0.0884398 0.398122
lowerneck -11.0178 -8.36916 -12.1248
upperneck 39.5832 -10.1049 1.68619
head 17.0676 -5.79332 1.06279
rclavicle 7.85199e-015 -1.19271e-015
rhumerus -27.7666 -23.7738 -32.4413
rradius 30.8508
rwrist 28.9245
rhand -15.541 10.8228
rfingers 7.12502
rthumb 10.6429 -18.8876
lclavicle 7.85199e-015 -1.19271e-015
lhumerus -27.3373 17.2914 33.9983
lradius 32.2395
lwrist -13.711
lhand -11.1226 14.3106
lfingers 7.12502
lthumb 14.9024 43.7546
rfemur -2.03464 11.4787 18.1474
rtibia 16.8748
rfoot -12.5763 -11.4753
rtoes -6.63899
lfemur 0.385191 -11.2551 -16.4507
ltibia 11.3592
lfoot -9.37676 10.3523
ltoes -12.2892
